<?xml version="1.0" encoding="utf-8"?>
<!-- Generator: Adobe Illustrator 18.0.0, SVG Export Plug-In . SVG Version: 6.00 Build 0)  -->
<!DOCTYPE svg PUBLIC "-//W3C//DTD SVG 1.1//EN" "http://www.w3.org/Graphics/SVG/1.1/DTD/svg11.dtd">
<svg version="1.1" id="Layer_1" xmlns="http://www.w3.org/2000/svg" xmlns:xlink="http://www.w3.org/1999/xlink" x="0px" y="0px"
	 viewBox="443.2 335.5 460.6 97.2" enable-background="new 443.2 335.5 460.6 97.2" xml:space="preserve">
<g>
	<g enable-background="new    ">
		<path fill="#30C1D5" d="M481.8,369.3c-3.6,10.3-7.5,21.1-10.7,30.7h-6.8l-21.1-63.7h9.5l15.1,45.7l10.4-29.6h7.3l10.3,29.5
			c5-15.1,10.5-31.2,15.2-45.6h9.6l-21.1,63.7h-6.8L481.8,369.3z"/>
		<path fill="#30C1D5" d="M531.6,362.9h26.8v-26.7h9.2v63.2h-9.2v-27.5h-26.8v27.5h-9.1v-63.2h9.1V362.9z"/>
		<path fill="#30C1D5" d="M608.2,380.8h-22.7c-2.4,5.8-5.6,13.4-7.6,18.6h-9.9l25.4-64.1h6.7l25.4,64.1h-9.8L608.2,380.8z
			 M589,372.2h15.7l-7.8-22.3L589,372.2z"/>
		<path fill="#30C1D5" d="M635,399.7v-54.3h-19.2v-9.2h47.4v9.2h-19.1v54.3L635,399.7L635,399.7z"/>
		<path fill="#30C1D5" d="M675,336v22.4h-8.7V336H675L675,336z"/>
		<path fill="#30C1D5" d="M714.6,352.5c-1.3-5.7-7.4-8.1-12.9-8c-4.3,0.1-9,1.5-11.5,4.8c-1.3,1.6-1.7,3.7-1.5,5.9
			c0.4,6.5,7.6,7.3,14.4,7.9c8.7,1.1,19.4,3.3,21.9,13.5c0.3,1.4,0.4,2.9,0.4,4.2c0,12.2-12.1,19.3-23.5,19.3
			c-9.8,0-21.6-5.8-22.8-17.1l-0.1-1.7l9.2-0.2l0.1,1.4V382c0.6,5.9,7.8,9,13.7,9c6.8,0,14.2-3.8,14.2-10.3c0-0.6-0.1-1.4-0.3-2.2
			c-1.1-4.8-7.6-5.6-13.9-6.3c-9.9-1-21.4-3.2-22.4-16.4v0.1c-0.4-4.3,0.7-8.5,3.4-12c4.3-5.5,11.8-8.4,19.2-8.4
			c9.8,0,19.9,5.1,21.5,16.6L714.6,352.5z"/>
		<path fill="#30C1D5" d="M762.1,380.4v-44.2h9.2v44.3c0,7,7.5,10.4,14.2,10.4c6.6,0,14.1-3.5,14.1-10.5v-44.2h9.2v44.3
			c0,12.8-12.5,19.5-23.3,19.5C774.5,400,762.1,393.4,762.1,380.4z"/>
		<path fill="#30C1D5" d="M838.2,336.1c13.7,0,20.5,10.6,20.5,21.2s-6.9,21.1-20.5,21.1h-13.9v21.1H815v-63.3H838.2z M838.2,369.3
			c7.7,0,11.5-6,11.5-11.9c0-6-3.8-12-11.5-12h-13.9v24H838.2z"/>
		<path fill="#30C1D5" d="M885.5,386.2h-9.2v-7.4c0-8.1,5.2-10.6,11-13.5h-0.1c3.3-1.8,6.8-3.6,7-9c0.2-5.7-4.6-11.2-13.3-11.2
			c-6.3,0-11,3.7-13.8,9.7l-7.4-4.3c3.9-8.3,11-14.8,21.3-14.8c14.6,0,23.2,10,22.9,20.8c-0.3,10.7-7.1,14-12.7,17.1
			c-2.9,1.5-5.6,2.8-5.6,5.3L885.5,386.2z M886.8,394.9c0,2.8-2.4,5.8-6,5.8c-3.2,0-5.7-3-5.7-5.8c0-3.5,2.5-6,5.7-6
			C884.4,388.9,886.8,391.4,886.8,394.9z"/>
	</g>
</g>
<g>
	<g enable-background="new    ">
		<path fill="#9A9A9B" d="M555.4,432.3v-16.3l-5.9,15.5H548l-5.8-15.5v16.3h-1.9v-20.8h2l6.6,17.1l6.6-17.1h2v20.8H555.4z"/>
		<path fill="#9A9A9B" d="M602,432.3l-2.4-7.2h-7.2l-2.4,7.2h-2l7.1-20.8h1.8l7.1,20.8H602z M599.1,423.4l-3.1-9.3l-3.1,9.3H599.1z"
			/>
		<path fill="#9A9A9B" d="M645.4,430.6v1.8h-10.7v-20.8h1.9v19.1L645.4,430.6L645.4,430.6z"/>
		<path fill="#9A9A9B" d="M683.1,411.6c4.8,0,7.2,3,7.2,7v7.6c0,4.8-3.1,6.2-6.6,6.2h-7.5v-20.8L683.1,411.6L683.1,411.6z
			 M678.2,430.6h5.5c2.7,0,4.7-1,4.7-4.5v-7.6c0-3.1-1.7-5.2-5.3-5.2h-5L678.2,430.6L678.2,430.6z"/>
		<path fill="#9A9A9B" d="M722.3,432.3v-20.8h1.9v20.8H722.3z"/>
		<path fill="#9A9A9B" d="M761,432.3l-6.4-20.8h2l5.7,18.7l5.7-18.7h2l-6.4,20.8H761z"/>
		<path fill="#9A9A9B" d="M803,413.3v7.8h10v1.8h-10v7.8h11v1.8H801v-20.8h12.8v1.8L803,413.3L803,413.3z"/>
		<path fill="#9A9A9B" d="M845.7,426.7c0.1,2.1,1.7,4.2,5.4,4.2c3.8,0,5.3-1.8,5.3-4.2c0-2.5-2.7-3.4-5.6-4.3
			c-3.5-1.1-6.5-2.3-6.5-5.6c0-3.6,2.9-5.6,6.8-5.6c3.9,0,6.8,1.9,6.9,5.6h-1.9c0-2.6-2.3-3.8-5-3.8c-2.7,0-4.9,1.3-4.9,3.7
			c0,2.1,2.1,2.9,5.2,3.9c4,1.1,6.8,2.7,6.8,6.2c0,3.3-2,6-7.2,6c-4.7,0-7.2-2.8-7.3-5.9L845.7,426.7z"/>
	</g>
</g>
</svg>
